<svg width="692" height="350" viewBox="0 0 692 350" fill="none" xmlns="http://www.w3.org/2000/svg">
<mask id="path-1-inside-1" fill="white">
<rect y="75" width="114" height="194" rx="10"/>
</mask>
<rect y="75" width="114" height="194" rx="10" stroke="white" stroke-width="60" mask="url(#path-1-inside-1)"/>
<rect x="144" y="75" width="30" height="194" rx="10" fill="white"/>
<rect x="108.285" y="255.689" width="30" height="194" rx="5" transform="rotate(157.291 108.285 255.689)" fill="white"/>
<path d="M300.362 231.268C300.362 236.818 299.288 242.055 297.139 246.979C295.08 251.902 292.216 256.199 288.545 259.869C284.875 263.539 280.578 266.449 275.655 268.597C270.731 270.656 265.494 271.686 259.944 271.686H248.934C243.383 271.686 238.147 270.656 233.223 268.597C228.3 266.449 224.003 263.539 220.333 259.869C216.662 256.199 213.753 251.902 211.604 246.979C209.546 242.055 208.516 236.818 208.516 231.268V76.4463H225.032V143.048C228.792 138.572 233.313 135.081 238.594 132.574C243.876 130.068 249.605 128.814 255.782 128.814H259.944C265.494 128.814 270.731 129.889 275.655 132.037C280.578 134.096 284.875 136.961 288.545 140.631C292.216 144.301 295.08 148.598 297.139 153.521C299.288 158.445 300.362 163.682 300.362 169.232V231.268ZM283.846 168.292C283.846 164.98 283.219 161.891 281.966 159.027C280.713 156.073 279.012 153.521 276.863 151.373C274.715 149.225 272.164 147.524 269.209 146.271C266.345 145.017 263.257 144.391 259.944 144.391H248.934C245.621 144.391 242.488 145.017 239.534 146.271C236.67 147.524 234.163 149.225 232.015 151.373C229.866 153.521 228.165 156.073 226.912 159.027C225.659 161.891 225.032 164.98 225.032 168.292V232.208C225.032 235.52 225.659 238.653 226.912 241.607C228.165 244.472 229.866 246.979 232.015 249.127C234.163 251.275 236.67 252.976 239.534 254.229C242.488 255.483 245.621 256.109 248.934 256.109H259.944C263.257 256.109 266.345 255.483 269.209 254.229C272.164 252.976 274.715 251.275 276.863 249.127C279.012 246.979 280.713 244.472 281.966 241.607C283.219 238.653 283.846 235.52 283.846 232.208V168.292ZM419.734 269L410.604 255.304C406.844 260.227 402.144 264.211 396.504 267.254C390.865 270.208 384.688 271.686 377.974 271.686H373.812C368.261 271.686 363.025 270.656 358.101 268.597C353.178 266.449 348.881 263.539 345.21 259.869C341.54 256.199 338.631 251.902 336.482 246.979C334.424 242.055 333.394 236.818 333.394 231.268V229.925C333.394 224.375 334.424 219.138 336.482 214.215C338.631 209.291 341.54 204.994 345.21 201.324C348.881 197.654 353.178 194.789 358.101 192.73C363.025 190.582 368.261 189.508 373.812 189.508H408.724V168.292C408.724 164.98 408.097 161.891 406.844 159.027C405.59 156.073 403.89 153.521 401.741 151.373C399.593 149.225 397.042 147.524 394.087 146.271C391.223 145.017 388.134 144.391 384.822 144.391H375.154C371.842 144.391 368.709 145.017 365.755 146.271C362.89 147.524 360.384 149.225 358.235 151.373C356.087 153.521 354.386 156.073 353.133 159.027C351.88 161.891 351.253 164.98 351.253 168.292V173.26L334.737 170.575V169.232C334.737 163.682 335.766 158.445 337.825 153.521C339.974 148.598 342.883 144.301 346.553 140.631C350.223 136.961 354.52 134.096 359.444 132.037C364.367 129.889 369.604 128.814 375.154 128.814H384.822C390.372 128.814 395.609 129.889 400.533 132.037C405.456 134.096 409.753 136.961 413.423 140.631C417.094 144.301 419.958 148.598 422.017 153.521C424.166 158.445 425.24 163.682 425.24 169.232V269H419.734ZM408.724 202.398H373.812C370.499 202.398 367.366 203.025 364.412 204.278C361.548 205.532 359.041 207.277 356.893 209.515C354.744 211.664 353.043 214.215 351.79 217.169C350.537 220.034 349.91 223.122 349.91 226.434V232.208C349.91 235.52 350.537 238.653 351.79 241.607C353.043 244.472 354.744 246.979 356.893 249.127C359.041 251.275 361.548 252.976 364.412 254.229C367.366 255.483 370.499 256.109 373.812 256.109H384.822C388.134 256.109 391.223 255.483 394.087 254.229C397.042 252.976 399.593 251.275 401.741 249.127C403.89 246.979 405.59 244.472 406.844 241.607C408.097 238.653 408.724 235.52 408.724 232.208V202.398ZM533.602 269V168.292C533.602 164.98 532.975 161.891 531.722 159.027C530.468 156.073 528.768 153.521 526.619 151.373C524.471 149.225 521.919 147.524 518.965 146.271C516.101 145.017 513.012 144.391 509.7 144.391H498.689C495.377 144.391 492.244 145.017 489.29 146.271C486.425 147.524 483.919 149.225 481.771 151.373C479.622 153.521 477.921 156.073 476.668 159.027C475.415 161.891 474.788 164.98 474.788 168.292V269H458.272V131.5H463.777L472.774 145.465C476.534 140.362 481.233 136.334 486.873 133.38C492.602 130.336 498.824 128.814 505.538 128.814H509.7C515.25 128.814 520.487 129.889 525.411 132.037C530.334 134.096 534.631 136.961 538.301 140.631C541.972 144.301 544.836 148.598 546.895 153.521C549.043 158.445 550.118 163.682 550.118 169.232V269H533.602ZM664.522 269L608.394 200.25L664.522 131.5H686.006L628.536 200.25L686.006 269H664.522ZM588.655 269V76.4463H605.171V269H588.655Z" fill="white"/>
</svg>
